<?xml version="1.0" standalone="no"?>
<!DOCTYPE svg PUBLIC "-//W3C//DTD SVG 20010904//EN"
 "http://www.w3.org/TR/2001/REC-SVG-20010904/DTD/svg10.dtd">
<svg version="1.0" xmlns="http://www.w3.org/2000/svg"
 width="1080.000000pt" height="1080.000000pt" viewBox="0 0 1080.000000 1080.000000"
 preserveAspectRatio="xMidYMid meet">

<g transform="translate(0.000000,1080.000000) scale(0.100000,-0.100000)"
fill="#000000" stroke="none">
<path d="M5741 8218 c-4 -13 -19 -48 -31 -78 -12 -30 -33 -92 -46 -138 -12
-45 -36 -110 -53 -144 -27 -54 -31 -71 -31 -147 0 -47 -6 -119 -14 -158 -20
-106 -4 -177 60 -279 28 -44 58 -100 67 -125 10 -25 33 -64 52 -87 19 -22 35
-49 35 -60 0 -16 -5 -18 -37 -13 -35 6 -40 12 -70 74 -58 120 -160 201 -287
227 -33 7 -87 26 -120 44 -77 40 -144 41 -233 3 -71 -31 -109 -34 -141 -11
-54 38 -10 -54 72 -150 28 -33 67 -89 87 -125 29 -53 47 -74 102 -111 36 -25
88 -53 115 -62 27 -10 75 -36 107 -57 73 -49 111 -56 206 -37 40 9 90 16 111
16 34 0 38 -4 62 -52 27 -53 37 -160 17 -173 -13 -8 -20 22 -18 82 1 60 -14
83 -54 83 -35 0 -53 -29 -44 -72 5 -21 4 -28 -4 -24 -6 4 -11 18 -11 31 0 18
-12 32 -40 51 -38 25 -41 26 -65 10 -29 -19 -30 -27 -10 -65 17 -34 33 -41 86
-41 24 0 38 -4 34 -10 -3 -5 -19 -10 -35 -10 -39 0 -63 -33 -48 -66 14 -31 58
-40 97 -20 16 9 37 16 46 16 14 0 53 -65 44 -74 -2 -2 -49 6 -104 20 -59 14
-130 24 -174 24 l-74 0 -53 55 c-29 31 -69 62 -90 71 -65 27 -160 29 -278 5
-100 -21 -110 -21 -159 -7 -74 22 -129 56 -147 91 -8 17 -16 32 -18 35 -11 16
-32 -41 -32 -86 0 -95 40 -171 156 -294 35 -37 64 -72 64 -78 0 -6 -18 -25
-40 -42 -66 -52 -175 -219 -155 -238 3 -3 20 8 38 25 17 17 42 36 54 42 28 14
94 14 167 0 40 -9 63 -9 80 -1 21 9 28 5 67 -34 57 -58 124 -90 227 -108 129
-23 206 -79 206 -151 -1 -30 -164 -419 -184 -439 -15 -14 -36 15 -52 68 -10
32 -10 40 1 44 7 2 27 17 44 31 24 22 31 38 35 79 7 80 -4 120 -41 142 -44 27
-71 25 -109 -9 -30 -26 -33 -35 -36 -100 -4 -71 -4 -71 -22 -48 -14 17 -17 34
-13 64 6 49 -12 88 -62 132 -65 56 -150 37 -168 -39 -9 -37 29 -107 76 -141
42 -30 75 -36 107 -19 15 8 23 4 41 -21 l22 -31 -34 8 c-113 28 -212 -33 -183
-112 15 -44 57 -68 127 -72 53 -3 67 0 97 20 l35 24 48 -29 c28 -17 47 -36 47
-47 0 -10 -23 -58 -51 -107 -28 -48 -65 -115 -81 -148 -38 -75 -35 -72 -53
-49 -15 18 -15 18 -29 1 -8 -11 -12 -25 -9 -33 3 -8 1 -14 -5 -14 -5 0 -13 32
-17 70 -11 113 -63 208 -181 332 -80 85 -104 118 -137 188 -21 47 -48 105 -59
129 -12 24 -47 68 -79 98 -37 35 -68 78 -87 117 -37 78 -73 108 -159 137 -84
28 -130 69 -139 128 -4 23 -10 44 -15 47 -13 7 -66 -71 -90 -135 -24 -60 -26
-106 -20 -433 4 -246 20 -278 240 -499 137 -137 166 -161 241 -199 l85 -44
152 -6 c83 -3 153 -7 156 -10 3 -3 24 -43 47 -89 34 -68 41 -92 36 -120 -3
-20 -14 -90 -26 -156 -31 -185 -22 -519 17 -650 l19 -60 43 -3 c38 -3 46 1 78
34 30 33 34 42 30 73 -4 20 -13 81 -22 136 -9 55 -17 134 -18 175 -2 70 1 80
33 135 44 74 55 76 193 40 88 -24 112 -26 177 -20 96 10 131 8 205 -11 36 -10
76 -13 100 -9 22 3 102 39 177 80 132 71 142 74 235 85 123 13 164 24 236 62
105 56 167 148 233 344 33 100 51 135 108 211 64 84 76 118 76 211 0 89 -15
119 -69 142 -27 11 -35 9 -88 -20 -82 -46 -161 -99 -170 -113 -17 -26 -42 -37
-116 -51 -60 -12 -90 -25 -144 -61 -52 -35 -101 -56 -213 -91 -410 -127 -456
-144 -541 -195 -99 -60 -208 -147 -248 -198 -16 -20 -42 -63 -59 -96 -28 -55
-92 -132 -92 -109 0 5 20 43 45 84 46 76 56 123 31 133 -18 7 -30 -7 -47 -55
-7 -21 -16 -38 -20 -38 -12 0 98 316 133 383 l33 62 50 -2 c99 -4 159 -16 185
-35 42 -31 99 -34 133 -8 54 43 23 111 -59 126 -53 10 -30 23 29 17 50 -5 56
-3 90 27 42 37 50 85 19 113 -50 45 -161 -13 -162 -84 0 -15 -6 -32 -14 -38
-12 -10 -13 -3 -9 49 6 68 -11 100 -53 100 -60 0 -86 -41 -82 -130 1 -33 -2
-64 -7 -69 -6 -6 -30 -13 -53 -17 l-44 -7 71 139 c39 76 82 149 96 161 41 36
89 44 185 32 172 -23 309 10 427 102 40 32 108 71 161 94 168 72 260 163 284
279 8 38 25 78 45 106 18 25 44 69 59 99 24 48 26 61 22 135 -5 76 -42 195
-81 258 -13 20 -37 24 -37 6 0 -21 -51 -78 -134 -148 -46 -39 -102 -95 -125
-125 -23 -30 -52 -61 -64 -69 -12 -8 -76 -24 -142 -36 -185 -33 -234 -62 -330
-200 -55 -77 -111 -137 -120 -128 -3 3 6 30 19 60 23 51 70 202 104 332 11 43
26 70 54 98 53 53 79 51 137 -11 55 -58 78 -71 125 -71 98 0 103 130 6 170
-30 12 -41 30 -18 30 6 0 31 -9 54 -21 48 -23 91 -19 143 12 43 26 55 60 37
104 -12 29 -20 34 -59 40 -79 12 -139 -20 -156 -81 -5 -22 -14 -30 -35 -32
l-28 -4 26 35 c49 64 47 136 -4 162 -39 20 -73 11 -109 -31 -35 -39 -48 -95
-32 -130 19 -42 4 -72 -50 -100 -27 -13 -49 -20 -49 -14 0 45 46 255 65 297
33 74 54 81 145 54 80 -25 124 -22 197 9 23 10 79 26 125 35 95 19 108 26 200
109 37 34 83 74 102 89 19 15 49 56 65 89 27 54 31 72 31 145 0 90 0 89 -59
73 -20 -5 -62 -12 -93 -15 -44 -5 -71 -15 -115 -46 -32 -21 -69 -39 -83 -39
-53 0 -104 -23 -152 -68 -28 -26 -85 -68 -127 -93 -62 -37 -84 -58 -121 -112
-25 -37 -62 -84 -83 -105 l-38 -37 3 45 c3 42 5 45 33 48 39 5 55 19 55 47 0
29 -21 37 -54 20 -16 -9 -26 -10 -26 -3 0 18 72 132 112 176 85 93 106 187 68
297 -17 48 -20 80 -18 175 l3 117 -36 59 c-23 37 -68 86 -122 132 -108 91
-147 160 -147 258 0 66 -14 91 -29 52z m84 -273 c28 -27 81 -78 117 -112 108
-101 111 -110 114 -358 3 -237 2 -241 -70 -324 -25 -30 -55 -78 -66 -105 l-21
-51 5 60 c2 33 16 88 30 122 14 35 26 67 26 73 0 20 -20 -1 -42 -43 -21 -41
-22 -41 -29 -17 -12 44 -10 119 6 157 23 55 20 71 -9 44 l-23 -22 -14 83 c-7
46 -13 93 -12 106 1 25 71 125 111 159 15 12 23 25 19 29 -10 10 -72 -51 -105
-103 -15 -24 -30 -43 -34 -43 -11 0 -20 58 -12 82 3 13 24 54 46 91 22 38 38
71 35 73 -8 8 -54 -58 -75 -106 l-19 -44 -11 44 c-19 76 -25 149 -15 162 6 7
14 24 17 38 l7 25 -19 -22 -20 -22 -6 31 c-3 17 -6 49 -5 72 l1 41 11 -35 c6
-19 34 -57 62 -85z m-105 15 c0 -79 -2 -89 -17 -83 -13 5 -12 1 5 -23 16 -22
24 -55 32 -133 5 -57 8 -107 5 -110 -3 -2 -27 16 -53 42 -72 70 -74 57 -4 -17
52 -54 62 -70 62 -100 0 -41 -5 -44 -34 -17 -12 10 -34 26 -51 36 -19 11 -8
-3 28 -36 44 -42 57 -61 57 -82 l0 -28 -31 23 c-57 43 -84 58 -103 58 -14 0
-6 -9 25 -28 59 -38 119 -106 119 -136 l0 -24 -47 18 c-27 9 -53 15 -59 13
-19 -7 -55 63 -61 119 -3 34 0 72 11 107 9 31 16 90 16 135 0 59 6 96 21 136
28 70 56 157 64 193 10 49 15 29 15 -63z m67 -342 c-3 -7 -5 -2 -5 12 0 14 2
19 5 13 2 -7 2 -19 0 -25z m10 -40 c-3 -8 -6 -5 -6 6 -1 11 2 17 5 13 3 -3 4
-12 1 -19z m37 -190 c43 -276 52 -554 22 -678 -29 -123 -41 -168 -46 -173 -6
-6 -3 619 4 723 2 41 1 112 -2 158 -4 45 -4 82 -1 82 3 0 14 -50 23 -112z
m-608 -73 c35 -17 57 -37 73 -65 12 -22 34 -54 48 -70 14 -17 23 -33 20 -36
-2 -3 -31 26 -62 63 -81 96 -101 101 -32 8 23 -31 15 -25 -36 25 -76 73 -92
71 -20 -2 26 -26 43 -51 39 -55 -11 -11 -38 10 -59 48 -10 19 -32 48 -49 65
-21 23 -26 33 -16 37 25 10 45 7 94 -18z m-87 -41 c43 -49 50 -64 28 -64 -18
0 -57 29 -57 43 0 7 -7 24 -14 40 -22 41 -3 33 43 -19z m595 11 c23 -16 45
-70 32 -82 -3 -3 -12 0 -21 7 -27 22 -28 2 -2 -22 26 -25 47 -78 30 -78 -21 0
-55 50 -68 99 -7 29 -21 63 -29 76 -9 13 -16 27 -16 29 0 8 46 -11 74 -29z
m-649 -6 c9 -17 14 -33 11 -37 -8 -7 -116 27 -116 37 0 8 47 28 72 30 10 1 24
-12 33 -30z m380 -64 c28 -13 76 -51 109 -83 51 -52 59 -66 64 -107 7 -64 -15
-57 -43 13 -26 65 -40 78 -31 29 5 -27 4 -37 -3 -32 -6 3 -11 14 -11 25 0 22
-85 118 -96 107 -4 -4 7 -25 24 -46 18 -22 32 -42 32 -46 0 -3 -21 6 -48 19
-31 16 -64 45 -95 86 -70 89 -70 93 -5 74 29 -8 76 -26 103 -39z m1205 26
c-26 -21 -36 -25 -38 -15 -5 19 -22 7 -22 -15 0 -10 -7 -24 -15 -31 -12 -10
-15 -10 -15 3 0 9 5 28 10 42 8 20 7 26 -2 23 -7 -3 -21 -27 -31 -55 -12 -33
-27 -54 -43 -62 -20 -9 -24 -8 -24 5 0 8 5 24 10 34 8 16 7 18 -4 14 -8 -3
-20 -21 -26 -40 -11 -33 -54 -73 -66 -61 -7 7 13 67 29 87 7 9 35 32 62 52 50
36 73 42 170 46 l39 2 -34 -29z m-1581 -73 c1 -5 -14 -8 -32 -8 -26 0 -42 10
-77 45 l-45 46 77 -38 c42 -21 77 -41 77 -45z m1631 -6 c-17 -66 -69 -134
-122 -160 -46 -23 -48 -23 -98 -7 -27 9 -52 20 -55 25 -3 4 11 20 31 35 37 28
50 29 138 9 22 -5 28 -4 24 7 -3 8 -21 17 -41 20 -21 3 -40 8 -42 11 -3 3 12
17 33 32 30 20 45 25 70 20 21 -4 32 -3 32 5 0 6 -7 11 -16 11 -23 0 -12 22
22 41 35 19 40 9 24 -49z m-1500 1 c223 -82 337 -151 510 -311 79 -72 58 -73
-25 -1 -39 34 -99 83 -135 110 -69 53 -328 184 -420 214 -30 10 -59 22 -65 27
-13 13 14 5 135 -39z m1175 -13 c-5 -17 -11 -50 -14 -82 -2 -14 -44 -20 -51
-8 -13 21 30 110 52 110 15 0 18 -5 13 -20z m-1229 -9 c-5 -8 -69 -24 -98 -26
-19 0 -7 21 14 27 35 10 90 9 84 -1z m1154 -17 c-6 -14 -10 -40 -10 -58 0 -24
-5 -35 -17 -39 -10 -2 -26 -8 -35 -12 -15 -6 -18 -2 -18 19 0 17 15 42 41 71
23 25 43 45 45 45 2 0 -1 -12 -6 -26z m-958 -67 c78 -40 143 -77 145 -84 5
-13 -118 -89 -157 -97 -14 -3 -38 0 -55 7 l-30 14 84 44 c116 60 115 80 0 24
-51 -25 -102 -45 -113 -45 -12 1 -34 11 -50 24 -32 26 -31 26 44 41 44 9 110
42 110 55 0 14 -17 12 -43 -4 -30 -20 -137 -47 -159 -41 -15 5 -73 94 -65 101
5 6 111 33 130 33 10 1 81 -32 159 -72z m856 -33 c-4 -33 -48 -55 -48 -24 0
20 25 50 41 50 6 0 9 -12 7 -26z m192 11 c0 -14 -225 -103 -235 -93 -4 4 209
95 228 97 4 1 7 -1 7 -4z m-250 -24 c0 -25 -16 -44 -52 -62 -22 -11 -42 -18
-45 -15 -7 6 75 86 88 86 5 0 9 -4 9 -9z m293 -18 c18 -9 45 -19 61 -22 63
-14 30 -51 -47 -54 -37 -1 -137 30 -137 43 0 6 71 47 83 49 4 1 22 -7 40 -16z
m-758 -62 c-10 -9 -25 14 -24 37 l1 27 13 -30 c7 -16 12 -32 10 -34z m-103
-17 c27 -20 46 -39 43 -42 -3 -3 -22 -13 -43 -23 -45 -21 -17 -25 33 -5 19 8
37 11 40 6 7 -12 -80 -39 -145 -46 -61 -5 -61 -6 27 49 25 15 44 30 42 32 -3
2 -36 -12 -74 -31 -80 -39 -85 -40 -126 -18 l-31 15 59 29 c32 16 69 38 83 49
14 11 29 21 34 21 4 0 31 -16 58 -36z m773 11 c32 -14 74 -29 94 -34 l36 -7
-40 -21 c-22 -11 -58 -23 -80 -27 -22 -4 -48 -9 -57 -12 -10 -3 -29 7 -46 24
-17 17 -40 37 -52 45 -12 8 -19 20 -15 26 12 20 50 11 105 -23 30 -19 57 -33
59 -31 7 8 -18 31 -54 51 -36 19 -45 34 -21 34 7 0 39 -11 71 -25z m-597 -22
c14 -13 18 -24 13 -37 -7 -18 -8 -18 -29 4 -38 41 -25 68 16 33z m456 -34 c25
-22 46 -44 46 -48 0 -14 -51 -31 -111 -38 -53 -5 -62 -3 -95 22 -33 25 -34 29
-20 43 14 14 18 14 39 -6 24 -23 84 -48 93 -39 3 3 -14 16 -38 29 -24 13 -43
30 -43 37 0 11 48 37 76 40 3 1 27 -17 53 -40z m-189 -60 c11 -17 -1 -21 -15
-4 -8 9 -8 15 -2 15 6 0 14 -5 17 -11z m-325 -131 c0 -33 -4 -48 -9 -42 -9 8
-4 94 5 94 2 0 4 -23 4 -52z m-122 2 c13 -16 19 -30 14 -30 -4 0 -18 14 -30
30 -13 17 -19 30 -14 30 4 0 18 -13 30 -30z m-884 -87 c41 -64 149 -147 219
-169 55 -17 81 -39 35 -30 -13 3 -43 7 -66 11 -24 3 -60 14 -80 24 -43 22
-138 142 -152 192 -13 44 -12 58 3 35 7 -10 25 -38 41 -63z m1341 32 c-8 -22
-14 -49 -15 -60 0 -11 -10 -31 -21 -45 -17 -20 -19 -21 -14 -5 4 11 13 44 21
73 11 48 32 88 40 79 2 -1 -3 -21 -11 -42z m-1321 20 c8 -8 18 -24 21 -35 3
-11 11 -20 17 -20 5 0 7 7 4 16 -13 35 30 7 52 -34 13 -23 28 -42 34 -42 5 0
0 15 -11 34 l-21 34 62 5 c61 4 64 3 108 -33 42 -34 108 -135 97 -147 -3 -3
-19 -2 -34 1 -20 5 -50 31 -93 81 -71 84 -92 93 -35 15 20 -27 32 -50 26 -50
-7 0 -34 11 -61 25 -68 35 -63 23 7 -17 31 -17 51 -34 45 -36 -35 -11 -202
121 -237 188 -17 32 -6 40 19 15z m393 -16 c52 -18 113 -101 138 -188 13 -42
21 -78 19 -80 -1 -1 -39 9 -83 24 l-79 26 -19 51 c-10 30 -38 74 -66 104 l-48
52 53 10 c29 5 53 10 54 11 1 0 15 -4 31 -10z m133 -24 c35 -17 57 -38 75 -69
23 -40 26 -53 23 -133 l-3 -88 -32 32 c-27 26 -33 39 -33 75 0 70 -18 114 -65
162 -50 52 -39 59 35 21z m488 -13 c6 -18 -15 -14 -22 4 -4 10 -1 14 6 12 6
-2 14 -10 16 -16z m-79 -17 c-12 -11 -79 -34 -79 -27 0 4 12 13 28 19 28 11
59 16 51 8z m653 -47 c-14 -14 -172 -28 -172 -16 0 11 35 17 110 21 36 2 67 4
70 5 2 1 -2 -4 -8 -10z m268 -104 c-24 -58 -36 -67 -43 -31 -2 12 -5 -1 -6
-30 0 -28 -5 -55 -11 -58 -5 -3 -10 3 -10 14 0 12 -4 21 -10 21 -5 0 -10 -20
-10 -44 0 -42 -3 -47 -82 -122 l-83 -77 -5 49 c-5 48 -5 49 -13 15 -4 -18 -7
-44 -7 -57 0 -21 -32 -54 -54 -54 -5 0 -6 23 -3 53 4 35 3 47 -3 37 -5 -8 -10
-33 -10 -56 0 -47 -14 -63 -105 -116 -90 -53 -143 -79 -148 -70 -2 4 0 47 5
96 5 49 7 91 4 93 -10 10 -26 -76 -26 -139 0 -65 -1 -68 -30 -83 -16 -8 -32
-15 -36 -15 -6 0 2 93 13 138 3 12 1 22 -5 22 -12 0 -36 -126 -26 -141 8 -14
-25 -49 -48 -49 -15 0 -18 8 -18 53 0 40 6 62 26 92 37 56 83 103 125 130 37
24 147 61 155 52 2 -2 -2 -33 -11 -68 -17 -73 -19 -99 -7 -99 5 0 15 33 22 73
7 39 16 79 21 88 5 10 33 21 71 29 65 12 95 35 160 120 l27 35 -5 -55 c-7 -70
12 -49 21 25 6 47 12 55 93 132 95 90 109 90 72 -3z m-1177 38 c31 -34 46 -88
45 -161 l0 -73 -35 34 c-19 18 -39 41 -45 51 -10 20 -1 167 12 167 4 0 14 -8
23 -18z m103 -8 c60 -35 56 -50 -6 -19 -27 14 -50 30 -50 35 0 15 7 13 56 -16z
m60 -5 c19 -22 19 -22 -3 -10 -24 12 -39 31 -25 31 5 0 17 -10 28 -21z m107
-9 c67 -15 67 -25 -1 -21 -32 2 -53 9 -67 23 -13 14 -15 19 -5 16 8 -3 41 -11
73 -18z m979 -42 c6 -24 12 -82 13 -129 0 -82 -1 -88 -39 -148 -21 -35 -48
-88 -60 -119 l-23 -57 -104 2 c-57 1 -117 6 -134 11 l-30 8 29 19 c19 12 53
21 95 23 84 5 105 22 28 22 -31 0 -57 3 -57 7 0 4 10 17 22 30 18 19 32 23 85
23 59 0 143 23 130 36 -3 3 -22 1 -44 -5 -45 -13 -123 -15 -123 -3 0 4 13 29
30 55 20 32 43 53 75 68 52 24 95 71 95 102 0 18 -8 12 -46 -31 -25 -28 -50
-52 -55 -52 -5 0 12 41 38 90 26 50 50 90 54 90 5 0 14 -19 21 -42z m-672 17
c-7 -8 -17 -12 -22 -9 -6 4 -5 10 3 15 22 14 33 10 19 -6z m121 -55 c73 -72
45 -66 -35 8 -34 30 -51 52 -42 52 9 0 43 -27 77 -60z m-578 23 c34 -24 38
-30 33 -57 -3 -17 -8 -67 -12 -111 -4 -44 -10 -86 -13 -93 -11 -20 -65 103
-64 146 1 75 7 142 12 142 3 0 22 -12 44 -27z m170 -11 c-20 -2 -40 -13 -52
-28 -12 -16 -22 -21 -26 -14 -17 27 65 68 100 50 6 -3 -5 -6 -22 -8z m-701 -7
c68 -8 132 -22 150 -32 l33 -18 -30 -3 c-96 -8 -97 -16 -4 -22 61 -3 102 -10
113 -19 15 -13 9 -17 -56 -38 -131 -43 -239 -22 -278 53 -8 16 -23 35 -32 42
-10 7 -23 22 -28 33 -13 23 -19 23 132 4z m618 11 c0 -3 -4 -8 -10 -11 -5 -3
-10 -1 -10 4 0 6 5 11 10 11 6 0 10 -2 10 -4z m-355 -41 c55 -27 123 -80 114
-89 -3 -3 -24 7 -46 23 -23 17 -69 44 -102 61 -98 49 -69 54 34 5z m521 23
c-3 -7 -12 -47 -22 -88 -34 -148 -276 -774 -377 -975 -16 -33 -47 -85 -68
-115 -21 -31 -52 -92 -68 -137 -60 -164 -142 -530 -127 -568 5 -14 20 -4 79
50 39 37 97 84 127 105 138 94 448 224 640 269 103 25 134 22 43 -3 -191 -54
-333 -113 -546 -228 -153 -82 -202 -123 -275 -233 -75 -111 -78 -119 -87 -175
-6 -40 14 -237 31 -307 4 -15 0 -23 -16 -28 -11 -4 -32 -24 -47 -46 -14 -21
-29 -37 -33 -34 -10 6 -28 107 -35 198 -7 96 19 408 46 536 29 141 29 142 -53
266 l-73 109 -190 143 c-183 137 -384 313 -407 357 -11 21 59 -36 177 -144
157 -144 264 -226 386 -293 74 -41 111 -78 158 -159 34 -61 56 -84 65 -70 3 5
0 23 -6 40 -11 27 -7 39 34 124 25 51 60 113 79 138 101 132 145 215 217 410
63 171 146 374 228 558 35 78 73 180 85 227 12 47 25 85 30 85 5 0 7 -6 5 -12z
m-87 -86 c-11 -34 -22 -62 -24 -62 -2 0 -9 16 -15 36 -12 34 -11 37 21 64 19
15 35 27 36 26 2 -1 -7 -30 -18 -64z m-780 -23 c27 -36 18 -55 -10 -20 -17 20
-19 21 -19 5 -1 -18 -1 -18 -15 -1 -15 21 -10 47 9 47 7 0 22 -14 35 -31z
m701 -10 c0 -17 -7 -43 -15 -58 -8 -16 -17 -47 -21 -70 -4 -23 -11 -41 -17
-41 -15 0 -3 128 16 173 19 43 37 41 37 -4z m-760 -13 c0 -19 -17 -29 -37 -22
-12 5 -13 9 -3 21 16 19 40 19 40 1z m598 -51 c87 -112 122 -202 98 -259 l-13
-31 -8 60 c-9 75 -39 143 -99 221 -25 34 -46 65 -46 68 0 15 30 -12 68 -59z
m-223 33 c-22 -12 -58 -27 -80 -34 -24 -7 -31 -13 -19 -13 19 -1 80 15 129 34
14 6 10 -2 -14 -28 -34 -36 -38 -37 -103 -37 -39 0 -68 -4 -68 -10 0 -5 26
-10 57 -10 53 0 56 -1 41 -16 -9 -9 -38 -19 -65 -21 -47 -5 -50 -3 -76 30 -15
20 -27 41 -27 48 0 7 -7 21 -17 31 -21 24 -13 31 21 18 41 -15 115 -11 171 10
70 26 100 25 50 -2z m144 -34 c12 -15 21 -30 21 -33 0 -4 -15 -15 -34 -25 -39
-21 -92 -73 -84 -81 3 -3 27 12 52 35 55 47 86 51 115 14 25 -32 26 -44 6 -44
-8 0 -55 -14 -105 -30 -97 -32 -153 -33 -128 -2 11 13 10 15 -5 9 -46 -17 -64
-16 -97 4 -19 12 -30 23 -25 25 6 1 26 5 46 8 26 5 59 26 115 76 44 38 84 70
91 70 6 0 21 -12 32 -26z m-469 -16 c0 -34 -13 -48 -37 -42 -15 4 -20 11 -16
22 16 45 53 58 53 20z m79 -10 c18 -31 17 -33 -27 -43 -38 -8 -51 12 -33 51
14 32 40 28 60 -8z m625 -110 c-10 -21 -21 -35 -25 -31 -11 11 8 129 24 157
21 37 22 -80 1 -126z m-774 114 c0 -16 -25 -32 -49 -32 l-26 1 24 19 c24 20
51 27 51 12z m-688 -119 c-2 -54 -7 -103 -12 -108 -5 -6 -6 -22 -3 -36 8 -35
-12 -12 -26 30 -6 19 -11 44 -11 56 0 28 40 155 48 155 4 0 6 -44 4 -97z
m2223 56 c-81 -83 -209 -167 -439 -288 -66 -35 -154 -85 -198 -112 -43 -27
-78 -47 -78 -45 0 13 145 106 253 163 202 107 318 179 407 253 46 38 87 70 89
70 3 0 -13 -18 -34 -41z m-2179 -58 c-3 -9 -8 -43 -12 -76 l-8 -60 -7 40 c-4
22 -8 67 -8 100 l0 60 20 -24 c11 -13 17 -31 15 -40z m69 -28 c45 -21 46 -47
5 -163 -17 -46 -30 -99 -30 -116 0 -18 -4 -36 -10 -39 -15 -10 -12 64 6 124
20 69 12 90 -10 26 -30 -82 -30 -82 -34 -50 -3 23 10 119 24 178 1 4 2 18 3
32 1 30 1 30 46 8z m1227 -6 c4 -7 8 -22 8 -35 0 -22 -1 -22 -30 -7 -16 8 -52
15 -80 15 -63 0 -64 15 -2 34 49 16 92 13 104 -7z m-1113 -51 c20 -22 22 -31
16 -71 -3 -26 -21 -88 -40 -139 -18 -50 -36 -117 -40 -149 -4 -31 -11 -54 -16
-51 -13 8 -11 91 5 159 8 33 13 61 11 63 -9 9 -33 -59 -40 -113 -6 -45 -10
-55 -16 -40 -16 40 -9 120 17 190 14 39 31 94 37 123 13 59 30 67 66 28z
m1121 -38 c0 -6 -7 -5 -15 2 -8 7 -15 17 -15 22 0 6 7 5 15 -2 8 -7 15 -17 15
-22z m963 8 c42 1 77 -1 77 -5 0 -16 -73 -91 -87 -91 -9 0 -58 14 -110 30 -51
17 -107 30 -123 30 -37 0 -38 15 -2 35 21 12 42 14 97 8 39 -5 105 -7 148 -7z
m-2017 -95 c-4 -30 -24 -99 -46 -153 -23 -57 -40 -115 -40 -138 0 -22 -4 -40
-10 -40 -22 0 -10 125 20 215 16 48 33 117 36 153 l7 65 20 -24 c16 -20 18
-33 13 -78z m1363 2 c1 -15 -9 -27 -29 -38 -38 -19 -40 -19 -40 7 0 27 -9 19
-15 -13 -3 -13 -13 -30 -22 -37 -16 -12 -18 -10 -21 12 -5 38 -22 32 -22 -8 0
-33 -24 -66 -37 -52 -16 15 22 91 55 111 18 11 52 34 75 51 41 29 42 30 49 10
3 -12 6 -31 7 -43z m509 7 c56 -18 102 -36 102 -40 0 -13 -54 -32 -105 -37
-42 -4 -158 11 -255 32 -14 3 -7 -1 14 -10 22 -8 69 -20 105 -26 36 -6 77 -13
91 -16 l25 -5 -25 -13 c-47 -26 -96 -27 -202 -6 -57 11 -114 21 -128 23 -14 2
-25 6 -25 10 0 4 52 34 115 67 133 69 134 69 288 21z m-2182 3 c10 -16 24 -47
30 -71 l11 -43 -25 23 c-13 13 -28 33 -33 46 -28 71 -18 97 17 45z m434 -131
c0 -13 -16 -72 -36 -133 -29 -88 -36 -121 -32 -164 3 -30 1 -52 -3 -49 -10 6
-29 97 -29 142 0 28 -3 33 -10 22 -5 -8 -10 -40 -10 -70 0 -67 -16 -51 -26 27
-7 61 -24 61 -24 1 0 -36 -2 -39 -16 -27 -27 22 -13 116 30 202 19 40 40 97
47 127 l12 54 48 -54 c27 -31 49 -65 49 -78z m402 41 c15 -15 28 -32 28 -38 0
-6 15 -37 34 -68 25 -41 29 -54 17 -47 -22 11 -44 44 -60 90 -6 19 -23 47 -38
62 -34 36 -18 37 19 1z m-751 -135 c31 -62 33 -68 21 -68 -15 0 -122 153 -122
174 0 17 5 16 36 -15 20 -18 49 -60 65 -91z m1819 87 c143 -24 140 -23 110
-45 -36 -28 -188 -28 -284 0 -38 11 -71 21 -73 23 -2 3 11 14 29 26 37 24 46
24 218 -4z m-785 -94 c-8 -17 -19 -47 -24 -68 l-9 -38 -1 33 c-1 19 9 67 22
107 21 72 22 73 25 35 2 -22 -4 -52 -13 -69z m-635 49 c11 -22 20 -44 20 -50
0 -5 18 -47 41 -93 l40 -82 -8 -130 -8 -129 -37 36 c-44 45 -63 120 -54 212 5
52 4 58 -6 41 -8 -12 -13 -54 -13 -107 l0 -88 -27 28 c-19 19 -31 45 -38 85
-11 59 -12 55 35 227 8 30 15 65 15 78 0 31 16 20 40 -28z m-456 -51 c22 -34
57 -74 78 -89 21 -15 58 -55 83 -88 25 -33 63 -76 86 -97 22 -20 39 -38 37
-41 -3 -2 -39 19 -82 47 -43 28 -80 48 -82 46 -12 -11 90 -83 172 -123 82 -39
124 -68 113 -78 -11 -10 -211 49 -273 80 -39 19 -62 27 -51 19 39 -32 154 -85
227 -105 139 -38 185 -55 219 -83 l34 -28 -75 7 c-99 8 -184 27 -254 58 -31
14 -56 23 -56 21 0 -3 17 -16 38 -30 56 -37 141 -63 249 -75 90 -10 203 -47
203 -66 0 -8 -168 2 -215 12 -21 4 -27 3 -20 -4 12 -12 135 -32 199 -32 47 0
96 -17 96 -33 0 -13 -117 -3 -235 22 -145 30 -205 63 -306 168 -176 183 -226
247 -244 309 -39 135 -29 170 33 113 29 -26 27 -24 -7 13 -42 45 -43 47 -31
82 6 20 15 36 18 36 4 0 25 -28 46 -61z m1706 31 c43 -11 108 -20 144 -20 37
0 66 -4 66 -10 0 -21 -79 -60 -155 -76 -80 -17 -220 -15 -288 4 l-29 8 21 18
c18 16 26 17 63 7 79 -21 190 -30 240 -20 27 6 48 14 48 19 0 5 -15 4 -32 -1
-18 -5 -48 -9 -67 -9 -42 0 -211 32 -211 39 0 13 96 71 108 66 8 -3 49 -14 92
-25z m-640 -177 c0 -13 -3 -13 -15 -3 -8 7 -15 16 -15 21 0 5 7 6 15 3 8 -4
15 -13 15 -21z m-90 -13 c12 -7 8 -10 -15 -10 -16 0 -52 -7 -80 -15 -49 -15
-99 -12 -110 6 -4 5 6 6 22 3 15 -2 48 2 73 10 54 17 90 19 110 6z m1665 -22
c-26 -88 -83 -163 -174 -226 -60 -43 -61 -43 -61 -18 0 14 5 49 11 78 9 43 20
62 60 101 27 26 53 47 58 47 6 0 -1 -24 -14 -52 -27 -62 -40 -118 -27 -118 5
0 14 19 21 43 20 69 90 167 118 167 10 0 12 -7 8 -22z m-1599 -25 c-7 -7 -26
7 -26 19 0 6 6 6 15 -2 9 -7 13 -15 11 -17z m-389 -70 c83 -95 96 -117 99
-177 2 -29 8 -64 13 -79 8 -22 8 -27 -4 -27 -8 0 -19 17 -25 43 -6 23 -18 62
-25 87 l-15 45 4 -55 c3 -30 8 -64 12 -75 5 -14 4 -17 -4 -10 -6 6 -20 44 -30
85 l-20 75 -1 -74 c-1 -103 -23 -80 -31 32 -7 90 -18 86 -22 -8 l-3 -60 -19
28 c-16 24 -18 39 -11 132 4 58 10 105 15 105 4 0 34 -30 67 -67z m2023 27 c0
-38 -51 -120 -87 -141 -29 -17 -93 -35 -93 -26 0 3 29 33 65 68 36 34 72 79
82 100 19 43 33 42 33 -1z m-1291 -54 c2 -82 -13 -94 -17 -15 -3 51 2 79 12
79 2 0 4 -29 5 -64z m237 15 c-4 -5 -25 -16 -49 -24 -23 -8 -51 -18 -62 -22
-17 -7 -18 -6 -7 6 7 8 34 21 60 30 58 20 65 21 58 10z m1084 -40 c0 -34 -6
-45 -50 -84 -67 -60 -128 -87 -214 -94 l-71 -6 19 21 c27 31 96 62 137 62 51
0 122 48 145 99 24 51 34 52 34 2z m-318 -71 l-4 -69 -62 -39 c-71 -45 -206
-115 -206 -107 0 3 9 24 21 46 11 23 18 43 16 45 -2 3 -14 -15 -25 -38 -11
-24 -28 -51 -38 -60 -25 -22 -74 -34 -74 -18 0 18 77 155 106 189 50 60 168
117 249 120 18 1 20 -4 17 -69z m-1002 -55 c0 -20 -28 -31 -42 -17 -10 10 8
23 40 31 1 1 2 -6 2 -14z m133 -28 c15 -6 27 -15 27 -20 0 -5 -4 -7 -8 -5 -62
25 -122 55 -122 61 0 4 17 0 38 -9 20 -9 49 -21 65 -27z m-696 -85 c5 -33 4
-35 -9 -22 -16 15 -39 95 -37 127 1 26 39 -62 46 -105z m1263 103 c0 -3 -23
-46 -51 -95 -46 -82 -53 -90 -80 -90 l-29 0 41 65 c23 36 39 68 36 71 -3 3
-25 -26 -50 -64 -52 -80 -49 -77 -104 -87 -31 -5 -43 -3 -43 6 0 6 37 47 83
90 58 56 95 83 127 93 49 16 70 19 70 11z m513 -46 c-50 -87 -133 -120 -297
-118 -63 0 -104 4 -100 10 5 8 22 19 113 68 14 8 67 18 116 21 57 5 107 15
135 28 25 11 46 21 48 21 2 1 -5 -13 -15 -30z m-744 -60 c-27 -28 -56 -63 -64
-79 -10 -19 -26 -30 -57 -38 -50 -13 -58 -9 -30 15 12 10 39 40 61 67 35 43
95 83 128 85 6 1 -11 -22 -38 -50z m-88 -6 c-16 -31 -148 -153 -165 -153 -13
0 -15 4 -6 19 18 35 11 37 -10 3 -13 -21 -39 -40 -76 -57 -32 -14 -59 -23 -62
-20 -18 18 168 159 271 206 52 23 60 24 48 2z m-141 -27 c0 -2 -30 -23 -66
-46 -60 -40 -126 -106 -135 -138 -5 -15 -69 -46 -69 -34 0 4 30 40 66 80 36
40 61 72 56 72 -11 0 -95 -88 -136 -143 -30 -39 -63 -63 -74 -53 -3 4 23 36
59 73 35 36 51 57 34 46 -16 -12 -69 -62 -117 -112 -48 -50 -92 -91 -98 -91
-17 0 49 87 105 138 80 72 219 161 232 148 3 -3 18 4 34 14 40 30 109 58 109
46z m920 -10 c0 -23 -66 -169 -80 -176 -44 -24 -118 -11 -242 40 -66 28 -134
50 -149 50 -50 0 -31 17 39 35 46 12 104 17 187 17 91 -1 133 4 175 18 61 20
70 22 70 16z m-335 -151 c83 -36 126 -49 178 -53 37 -2 67 -9 67 -14 0 -4 -19
-29 -41 -53 -35 -38 -48 -45 -78 -45 -50 0 -139 36 -230 93 -41 26 -110 58
-154 73 -43 14 -76 28 -74 31 11 11 106 22 162 18 44 -2 89 -15 170 -50z
m-285 -9 c36 -13 114 -51 175 -84 60 -34 132 -69 160 -78 27 -9 53 -20 58 -23
4 -4 -16 -18 -44 -31 -93 -44 -161 -31 -352 68 -106 54 -145 69 -220 83 l-92
16 37 17 c38 16 38 16 169 -34 72 -28 134 -49 137 -46 3 4 3 8 1 10 -5 4 -149
69 -194 87 l-30 12 40 13 c57 18 82 17 155 -10z m-215 -88 c37 -7 113 -39 201
-83 78 -40 152 -75 165 -79 23 -7 23 -8 4 -16 -42 -18 -119 -10 -198 20 -43
17 -83 30 -88 30 -25 0 6 -19 73 -45 40 -15 77 -31 81 -35 5 -4 -7 -14 -25
-23 -30 -14 -40 -14 -108 0 -41 8 -140 41 -220 73 -80 32 -166 61 -192 65 -27
4 -48 11 -48 15 0 32 178 29 294 -5 92 -27 119 -27 69 -2 -47 25 -146 47 -207
47 -31 0 -56 4 -56 8 0 8 57 33 100 43 29 6 70 3 155 -13z m-143 -174 c86 -35
181 -69 210 -75 119 -25 86 -44 -77 -44 l-100 0 -140 67 c-77 36 -157 72 -178
78 -39 12 -40 25 -3 40 43 18 130 -2 288 -66z m-291 0 c30 -9 88 -34 129 -56
123 -66 167 -80 270 -87 l95 -7 -45 -22 c-55 -26 -85 -27 -175 -3 -58 15 -81
17 -133 9 -76 -11 -199 13 -210 41 -9 24 -23 31 -71 31 l-44 0 23 25 c29 31
51 31 118 0 56 -26 82 -31 82 -16 0 9 -110 61 -129 61 -17 0 -13 18 7 29 22
13 20 14 83 -5z"/>
<path d="M3522 3751 c-20 -12 -31 -120 -42 -381 -8 -203 -12 -242 -29 -280
-27 -58 -26 -79 2 -118 22 -28 25 -46 30 -174 8 -164 13 -190 36 -186 14 3 16
19 13 123 -1 66 -5 135 -8 153 l-5 34 43 -8 c75 -14 297 -6 452 16 83 12 154
23 158 26 4 3 8 12 8 21 0 18 -15 17 -225 -12 -128 -17 -343 -20 -397 -4 l-38
10 0 74 0 74 60 65 c71 75 237 206 396 313 109 72 130 95 100 106 -29 11 -371
-231 -503 -357 l-43 -40 0 116 c0 141 18 366 32 391 6 13 6 23 -3 33 -13 16
-19 17 -37 5z"/>
<path d="M5207 3648 c-9 -5 -20 -27 -23 -49 -7 -44 -14 -47 -109 -51 -52 -3
-60 -6 -60 -23 0 -19 5 -20 77 -16 l78 3 -8 -63 c-4 -35 -7 -128 -7 -206 0
-128 2 -144 21 -170 37 -49 68 -43 133 24 55 56 121 164 121 197 0 35 -37 16
-64 -33 -39 -73 -114 -171 -130 -171 -36 0 -45 135 -23 320 l12 95 160 5 c152
5 160 6 160 25 0 19 -8 20 -158 23 -146 2 -158 4 -152 20 23 61 11 92 -28 70z"/>
<path d="M7225 3544 c-42 -21 -65 -53 -65 -91 0 -32 21 -63 43 -63 26 0 38 17
31 44 -8 32 10 56 41 56 46 0 39 -51 -15 -113 -17 -20 -44 -38 -60 -42 -36 -8
-52 -27 -48 -57 3 -24 10 -25 76 -12 30 6 33 4 48 -32 13 -31 14 -45 5 -75
-20 -67 -96 -118 -128 -86 -13 13 -13 19 2 46 19 38 7 61 -30 61 -31 0 -47
-23 -49 -70 -2 -85 74 -130 161 -94 110 46 159 199 89 281 l-24 27 31 38 c21
27 31 51 35 87 4 46 2 53 -26 81 -34 34 -70 39 -117 14z"/>
<path d="M6774 3398 c-47 -79 -93 -155 -101 -170 -29 -57 20 -86 123 -73 l54
6 0 -66 c0 -62 1 -66 22 -63 19 3 23 15 40 113 10 61 20 115 22 122 3 6 -2 17
-10 24 -22 18 -45 1 -59 -42 -12 -33 -13 -34 -75 -37 l-63 -3 17 27 c67 101
156 253 156 265 0 16 -19 39 -31 39 -4 0 -47 -64 -95 -142z"/>
<path d="M4529 3383 c-26 -150 -22 -185 20 -196 40 -10 161 72 161 109 0 23
-35 16 -61 -12 -27 -29 -78 -58 -87 -50 -3 3 0 36 7 71 6 36 9 70 6 75 -7 12
-44 13 -46 3z"/>
<path d="M6344 3354 c-66 -33 -86 -95 -36 -116 15 -7 29 -13 31 -15 2 -1 -11
-19 -28 -39 -41 -47 -40 -87 3 -92 37 -5 92 47 108 100 8 29 22 44 55 64 24
14 42 31 40 37 -7 22 -38 19 -77 -7 -30 -19 -47 -24 -70 -19 -40 7 -37 36 5
43 35 6 45 34 17 49 -13 7 -27 6 -48 -5z"/>
<path d="M4225 3348 c-2 -7 -6 -109 -10 -226 -6 -194 -5 -213 11 -219 31 -12
44 24 44 125 0 98 10 132 38 132 42 1 92 67 92 121 0 65 -53 88 -106 47 -15
-13 -25 -17 -21 -11 11 18 -3 43 -24 43 -11 0 -21 -6 -24 -12z m125 -70 c0
-26 -44 -87 -55 -76 -9 9 31 98 44 98 6 0 11 -10 11 -22z"/>
<path d="M5806 3343 c-4 -4 -19 -7 -34 -8 -25 0 -28 -4 -36 -56 -11 -70 -3
-109 24 -109 13 0 22 9 26 28 3 15 11 43 18 62 11 32 15 35 49 32 32 -2 37 0
37 18 0 28 -64 53 -84 33z"/>
<path d="M5476 3310 c-36 -43 -36 -103 -1 -126 22 -14 29 -14 77 0 66 20 148
79 148 106 0 29 -24 25 -73 -13 -61 -46 -105 -64 -120 -47 -9 9 -8 15 7 24 63
37 72 79 20 84 -25 2 -37 -3 -58 -28z"/>
<path d="M3992 3318 c-15 -15 -16 -92 -2 -119 16 -29 56 -24 81 11 12 16 34
32 48 35 36 8 75 40 67 54 -10 15 -28 14 -62 -4 -28 -14 -30 -14 -47 10 -20
27 -64 34 -85 13z"/>
<path d="M6003 3308 c-30 -34 -54 -84 -47 -102 8 -22 47 -20 75 3 23 18 23 18
42 -5 31 -40 73 -30 140 34 20 20 37 42 37 48 0 29 -23 23 -67 -15 -25 -23
-51 -41 -58 -41 -15 0 -25 22 -25 54 0 48 -61 63 -97 24z"/>
<path d="M4600 2742 c0 -5 3 -11 6 -15 4 -3 6 -33 6 -67 0 -34 -2 -64 -6 -67
-17 -17 0 -23 63 -23 62 0 70 2 76 21 9 28 -3 38 -19 16 -8 -10 -26 -17 -45
-17 -28 0 -31 3 -31 30 0 23 5 30 19 30 11 0 23 -4 26 -10 12 -20 25 -9 25 20
0 29 -13 40 -25 20 -3 -5 -15 -10 -26 -10 -14 0 -19 7 -19 30 0 26 3 30 29 30
16 0 31 -6 35 -15 9 -23 28 -18 24 8 -3 20 -9 22 -70 25 -38 2 -68 -1 -68 -6z"/>
<path d="M4861 2731 c-12 -12 -21 -25 -21 -31 0 -14 31 -42 69 -63 18 -9 31
-23 29 -30 -7 -19 -60 -21 -70 -3 -13 24 -30 19 -26 -6 2 -19 10 -24 47 -26
84 -6 109 56 36 94 -26 13 -40 27 -40 40 0 24 42 32 51 10 9 -24 26 -19 22 7
-4 32 -68 37 -97 8z"/>
<path d="M5056 2734 c-9 -23 -7 -44 3 -44 5 0 13 9 16 20 3 11 15 20 26 20 17
0 19 -7 19 -70 0 -56 -3 -70 -15 -70 -8 0 -15 -4 -15 -10 0 -5 20 -10 45 -10
25 0 45 5 45 10 0 6 -7 10 -15 10 -12 0 -15 14 -15 70 0 55 3 70 15 70 8 0 19
-9 26 -21 14 -27 34 -10 24 20 -6 19 -14 21 -80 21 -57 0 -74 -3 -79 -16z"/>
<path d="M5442 2734 c-12 -8 -20 -20 -16 -25 4 -6 11 -6 19 1 25 20 60 8 63
-22 2 -20 -6 -36 -37 -66 -23 -22 -41 -42 -41 -46 0 -3 29 -6 65 -6 63 0 65 1
65 25 0 14 -4 25 -10 25 -5 0 -10 -4 -10 -10 0 -5 -12 -10 -27 -10 l-26 0 20
23 c23 25 43 60 43 76 0 19 -39 51 -63 51 -12 0 -33 -7 -45 -16z"/>
<path d="M5686 2729 c-22 -17 -26 -28 -26 -70 0 -60 24 -89 73 -89 49 0 72 30
72 92 0 40 -5 53 -24 69 -30 25 -62 24 -95 -2z m74 -14 c17 -21 18 -89 1 -109
-18 -22 -48 -20 -61 3 -34 64 18 157 60 106z"/>
<path d="M5920 2735 c-22 -12 -23 -14 -7 -20 13 -6 17 -19 17 -66 0 -33 -4
-59 -10 -59 -5 0 -10 -4 -10 -10 0 -5 18 -10 40 -10 22 0 40 5 40 10 0 6 -7
10 -15 10 -12 0 -15 16 -15 80 0 44 -3 80 -7 80 -5 -1 -19 -7 -33 -15z"/>
<path d="M6100 2730 c-11 -11 -20 -29 -20 -40 0 -25 44 -54 70 -47 11 3 20 2
20 -2 0 -11 -45 -51 -58 -51 -6 0 -14 -4 -17 -10 -4 -6 5 -10 20 -10 17 0 39
12 61 34 60 60 40 146 -33 146 -13 0 -32 -9 -43 -20z m70 -15 c17 -21 5 -45
-24 -45 -27 0 -42 26 -25 46 15 18 33 18 49 -1z"/>
<path d="M5292 2588 c7 -19 38 -22 38 -4 0 10 -9 16 -21 16 -12 0 -19 -5 -17
-12z"/>
</g>
</svg>
